2.2Hzlow3min_grf.mot
version=1
nRows=30
nColumns 19
inDegrees=yes
endheader
time	1_ground_force_vx	1_ground_force_vy	1_ground_force_vz	1_ground_force_px	1_ground_force_py	1_ground_force_pz	1_ground_torque_x	1_ground_torque_y	1_ground_torque_z	2_ground_force_vx	2_ground_force_vy	2_ground_force_vz	2_ground_force_px	2_ground_force_py	2_ground_force_pz	2_ground_torque_x	2_ground_torque_y	2_ground_torque_z
            2.502500	            0.183336	            1.441768	            0.097440	           -0.233013	            0.005581	           -0.255695	            0.013864	           -0.018235	           -0.029941	            0.140344	            0.002181	           -0.469341	           -0.232311	            0.006130	           -0.833667	           -0.150299	           -0.000408	           -0.037636
            2.503000	            0.230680	           -0.543112	            0.547383	           -0.233013	            0.005581	           -0.255695	           -0.060734	            0.028005	           -0.027532	           -0.045665	           -0.367294	           -0.329791	           -0.232311	            0.006130	           -0.833667	            0.037307	            0.066506	           -0.056330
            2.503500	            0.321893	            0.178558	            0.412680	           -0.233013	            0.005581	           -0.255695	           -0.074034	           -0.045988	           -0.005135	            0.189873	           -0.734410	           -0.425061	           -0.232311	            0.006130	           -0.833667	           -0.056313	           -0.018907	           -0.056594
            2.504000	            0.138652	           -0.542540	            0.410043	           -0.233013	            0.005581	           -0.255695	           -0.036136	           -0.064391	           -0.050697	            0.235414	           -0.366112	           -0.376839	           -0.232311	            0.006130	           -0.833667	           -0.018818	            0.000201	           -0.075393
            2.504500	            0.184349	           -0.362069	            0.364846	           -0.233013	            0.005581	           -0.255695	           -0.015244	           -0.037121	            0.064105	            0.139700	            0.186162	           -0.421756	           -0.232311	            0.006130	           -0.833667	           -0.112873	            0.037606	           -0.056368
            2.505000	            0.322087	            0.358431	            0.505165	           -0.233013	            0.005581	           -0.255695	           -0.040486	            0.046375	            0.013970	            0.045212	            0.370976	           -0.702627	           -0.232311	            0.006130	           -0.833667	           -0.075081	           -0.019109	           -0.018886
            2.505500	            0.138260	            0.359182	            0.322196	           -0.233013	            0.005581	           -0.255695	            0.023777	            0.018324	            0.062265	            0.229974	            1.108079	           -0.653151	           -0.232311	            0.006130	           -0.833667	           -0.037559	           -0.027754	           -0.207437
            2.506000	            0.275918	            0.899612	            0.415885	           -0.233013	            0.005581	           -0.255695	           -0.074369	           -0.009278	            0.049437	            0.280976	            0.002019	           -0.281688	           -0.232311	            0.006130	           -0.833667	           -0.018615	           -0.047331	           -0.000161
            2.506500	            0.505037	            0.178987	            0.320513	           -0.233013	            0.005581	           -0.255695	           -0.126377	           -0.027511	            0.021691	            0.421505	            0.002694	           -0.328676	           -0.232311	            0.006130	           -0.833667	           -0.075089	           -0.028226	           -0.113170
            2.507000	            0.275903	            0.359012	            0.367711	           -0.233013	            0.005581	           -0.255695	           -0.053512	           -0.092063	           -0.044941	            0.325147	            0.738949	           -0.326008	           -0.232311	            0.006130	           -0.833667	           -0.056236	           -0.037880	           -0.037811
            2.507500	            0.138389	            0.899585	            0.416227	           -0.233013	            0.005581	           -0.255695	           -0.074287	           -0.027989	            0.081089	            0.329779	           -0.549922	           -0.377535	           -0.232311	            0.006130	           -0.833667	           -0.037570	           -0.009319	           -0.075419
            2.508000	            0.413788	            0.899049	            0.553112	           -0.233013	            0.005581	           -0.255695	           -0.117769	            0.018512	            0.055528	            0.329779	           -0.549922	           -0.377535	           -0.232311	            0.006130	           -0.833667	           -0.056330	           -0.009589	           -0.018860
            2.508500	            0.138569	            0.538858	            0.460537	           -0.233013	            0.005581	           -0.255695	           -0.132523	            0.027784	            0.006293	            0.141009	           -0.181967	           -0.469998	           -0.232311	            0.006130	           -0.833667	           -0.056380	           -0.009186	           -0.131961
            2.509000	            0.275579	           -0.361265	            0.181195	           -0.233013	            0.005581	           -0.255695	           -0.063602	            0.027367	            0.124805	            0.235455	           -0.366447	           -0.282982	           -0.232311	            0.006130	           -0.833667	           -0.000060	            0.018838	            0.018918
            2.509500	            0.138635	            0.178326	            0.458991	           -0.233013	            0.005581	           -0.255695	           -0.113603	           -0.027511	           -0.031574	            0.186529	            0.186499	           -0.468704	           -0.232311	            0.006130	           -0.833667	           -0.093902	           -0.000541	            0.056591
            2.510000	            0.230401	            0.358413	            0.505392	           -0.233013	            0.005581	           -0.255695	           -0.077985	            0.000028	            0.028753	            0.089506	            1.106902	           -0.465379	           -0.232311	            0.006130	           -0.833667	            0.056314	            0.009723	           -0.018840
            2.510500	            0.229733	            0.900193	            0.278431	           -0.233013	            0.005581	           -0.255695	           -0.030912	           -0.037106	            0.066054	            0.091500	            0.554457	           -0.467350	           -0.232311	            0.006130	           -0.833667	           -0.075107	           -0.009724	           -0.000002
            2.511000	            0.229521	            1.441187	            0.234894	           -0.233013	            0.005581	           -0.255695	           -0.067139	            0.018829	           -0.046425	           -0.000911	            0.186157	           -0.562480	           -0.232311	            0.006130	           -0.833667	           -0.056397	            0.000133	           -0.094227
            2.511500	            0.275465	           -0.361068	            0.135339	           -0.233013	            0.005581	           -0.255695	           -0.080560	            0.036848	            0.068493	            0.094947	           -0.367289	           -0.189066	           -0.232311	            0.006130	           -0.833667	           -0.000059	            0.009654	           -0.056517
            2.512000	            0.230449	            0.718748	            0.552794	           -0.233013	            0.005581	           -0.255695	           -0.174039	            0.036984	            0.029137	            0.232735	            0.370649	           -0.421138	           -0.232311	            0.006130	           -0.833667	           -0.075098	           -0.018975	           -0.056586
            2.512500	            0.184037	            0.719722	            0.323628	           -0.233013	            0.005581	           -0.255695	            0.023211	            0.083613	           -0.067098	            0.046706	            0.001341	           -0.328517	           -0.232311	            0.006130	           -0.833667	           -0.075090	           -0.019042	           -0.037736
            2.513000	            0.368077	            0.177977	            0.550134	           -0.233013	            0.005581	           -0.255695	           -0.042324	            0.064884	            0.016015	            0.281579	           -0.181627	           -0.423130	           -0.232311	            0.006130	           -0.833667	           -0.112643	           -0.028496	           -0.075454
            2.513500	            0.138015	            1.080441	            0.279432	           -0.233013	            0.005581	           -0.255695	           -0.050098	            0.009549	           -0.050403	            0.326558	            0.369983	           -0.139610	           -0.232311	            0.006130	           -0.833667	           -0.018776	           -0.009319	           -0.056576
            2.514000	            0.138275	            0.899782	            0.370371	           -0.233013	            0.005581	           -0.255695	           -0.035211	           -0.008771	           -0.088109	            0.235976	           -0.549423	           -0.612136	           -0.232311	            0.006130	           -0.833667	            0.056416	           -0.018635	           -0.018942
            2.514500	            0.183989	            0.359387	            0.276226	           -0.233013	            0.005581	           -0.255695	           -0.124478	           -0.027821	            0.045592	            0.328429	           -0.181458	           -0.423149	           -0.232311	            0.006130	           -0.833667	            0.018718	            0.009789	           -0.075375
            2.515000	            0.413614	           -1.263156	            0.314557	           -0.233013	            0.005581	           -0.255695	           -0.050325	           -0.027620	            0.036442	            0.374594	            0.003027	           -0.469440	           -0.232311	            0.006130	           -0.833667	           -0.131361	           -0.038286	           -0.000079
            2.515500	            0.275789	            0.359208	            0.321855	           -0.233013	            0.005581	           -0.255695	           -0.032667	            0.027862	            0.011916	            0.231344	            0.739448	           -0.560609	           -0.232311	            0.006130	           -0.833667	           -0.018929	            0.028626	           -0.094142
            2.516000	            0.138245	           -0.181419	            0.274021	           -0.233013	            0.005581	           -0.255695	           -0.030382	            0.046284	            0.006144	            0.143064	           -0.734914	           -0.331185	           -0.232311	            0.006130	           -0.833667	            0.037631	           -0.018703	           -0.018934
            2.516500	            0.596756	           -0.001261	            0.319512	           -0.233013	            0.005581	           -0.255695	           -0.107534	            0.018832	            0.006961	           -0.047700	            0.185485	           -0.421676	           -0.232311	            0.006130	           -0.833667	            0.000086	           -0.028224	           -0.037802
            2.517000	            0.413629	           -0.722556	            0.362731	           -0.233013	            0.005581	           -0.255695	           -0.052821	            0.009678	           -0.038603	           -0.001535	            0.369970	           -0.467967	           -0.232311	            0.006130	           -0.833667	            0.037631	           -0.018703	           -0.018934
